<svg width="24" height="24" viewBox="0 0 24 24" fill="none" xmlns="http://www.w3.org/2000/svg">
<path d="M9.91066 9.12828V16.8611C9.91936 17.4277 10.1442 17.9681 10.5368 18.3657C10.9293 18.7632 11.458 18.986 12.0088 18.986C12.5596 18.986 13.0883 18.7632 13.4808 18.3657C13.8733 17.9681 14.0982 17.4277 14.1069 16.8611L14.1137 6.70421C14.1194 6.2199 14.0316 5.73923 13.8554 5.29009C13.6793 4.84094 13.4182 4.43224 13.0873 4.08768C12.7565 3.74312 12.3625 3.46956 11.9281 3.28285C11.4938 3.09614 11.0277 3 10.557 3C10.0862 3 9.62018 3.09614 9.18582 3.28285C8.75146 3.46956 8.35744 3.74312 8.0266 4.08768C7.69576 4.43224 7.43469 4.84094 7.25851 5.29009C7.08233 5.73923 6.99455 6.2199 7.00026 6.70421V16.9295C7.01927 18.281 7.5544 19.5705 8.48999 20.5193C9.42558 21.4681 10.6865 22 12.0001 22C13.3138 22 14.5747 21.4681 15.5103 20.5193C16.4459 19.5705 16.981 18.281 17 16.9295V7.37433" stroke="black" stroke-width="1.5" stroke-miterlimit="10" stroke-linecap="square"/>
</svg>
