<svg width="26" height="26" viewBox="0 0 26 26" fill="none" xmlns="http://www.w3.org/2000/svg">
<rect width="26" height="26" rx="13" fill="#ECF9FF"/>
<path d="M0 0H26V26H0V0Z" fill="#3F9C35"/>
<path d="M0 0H26V17.3316H0V0Z" fill="#ED2939"/>
<path d="M0 0H26V8.66836H0V0Z" fill="#00B9E4"/>
<path d="M12.1266 16.9C14.2805 16.9 16.0266 15.1539 16.0266 13C16.0266 10.8461 14.2805 9.1 12.1266 9.1C9.97265 9.1 8.22656 10.8461 8.22656 13C8.22656 15.1539 9.97265 16.9 12.1266 16.9Z" fill="white"/>
<path d="M12.9949 16.25C14.7898 16.25 16.2449 14.7949 16.2449 13C16.2449 11.2051 14.7898 9.75 12.9949 9.75C11.1999 9.75 9.74487 11.2051 9.74487 13C9.74487 14.7949 11.1999 16.25 12.9949 16.25Z" fill="#ED2939"/>
<path d="M16.4633 10.8316L16.8746 11.9996L17.9918 11.4664L17.4637 12.5836L18.6316 13L17.4637 13.4164L17.9918 14.5336L16.8746 14.0004L16.4633 15.1684L16.0469 14.0004L14.9297 14.5336L15.4629 13.4164L14.2949 13L15.4629 12.5836L14.9297 11.4664L16.0469 11.9996L16.4633 10.8316Z" fill="white"/>
</svg>
