<svg width="24" height="24" viewBox="0 0 24 24" fill="none" xmlns="http://www.w3.org/2000/svg">
<path d="M14.5067 20.9999C14.3146 21.0006 14.1248 20.9582 13.9512 20.8759C13.7776 20.7935 13.6247 20.6734 13.5037 20.5242L7.29254 12.8107C7.1034 12.5807 7 12.2921 7 11.9943C7 11.6966 7.1034 11.408 7.29254 11.178L13.7223 3.46442C13.9405 3.20188 14.2542 3.03678 14.5942 3.00544C14.9343 2.9741 15.2728 3.07908 15.5354 3.2973C15.7981 3.51551 15.9632 3.82908 15.9946 4.16903C16.0259 4.50897 15.9209 4.84744 15.7026 5.10998L9.95444 12.0008L15.5097 18.8915C15.667 19.0802 15.7669 19.31 15.7976 19.5537C15.8283 19.7974 15.7885 20.0448 15.683 20.2666C15.5775 20.4884 15.4106 20.6753 15.2022 20.8053C14.9937 20.9352 14.7524 21.0028 14.5067 20.9999Z" fill="#777C81"/>
</svg>
