<svg width="17" height="15" viewBox="0 0 17 15" fill="none" xmlns="http://www.w3.org/2000/svg">
<path d="M15.4259 2.30769H12.75L12.1125 0.436813C12.0685 0.308794 11.9877 0.198136 11.8814 0.119954C11.775 0.0417721 11.6482 -0.000120045 11.5183 2.58385e-07H5.48171C5.21609 2.58385e-07 4.97801 0.175138 4.88947 0.436813L4.25 2.30769H1.57407C0.704398 2.30769 0 3.04533 0 3.95604V13.3516C0 14.2624 0.704398 15 1.57407 15H15.4259C16.2956 15 17 14.2624 17 13.3516V3.95604C17 3.04533 16.2956 2.30769 15.4259 2.30769ZM8.5 11.7033C6.76065 11.7033 5.35185 10.228 5.35185 8.40659C5.35185 6.58517 6.76065 5.10989 8.5 5.10989C10.2394 5.10989 11.6481 6.58517 11.6481 8.40659C11.6481 10.228 10.2394 11.7033 8.5 11.7033ZM6.61111 8.40659C6.61111 8.9312 6.81012 9.43432 7.16435 9.80527C7.51859 10.1762 7.99904 10.3846 8.5 10.3846C9.00096 10.3846 9.48141 10.1762 9.83565 9.80527C10.1899 9.43432 10.3889 8.9312 10.3889 8.40659C10.3889 7.88199 10.1899 7.37887 9.83565 7.00792C9.48141 6.63697 9.00096 6.42857 8.5 6.42857C7.99904 6.42857 7.51859 6.63697 7.16435 7.00792C6.81012 7.37887 6.61111 7.88199 6.61111 8.40659Z" fill="#26292D"/>
</svg>
