<svg width="24" height="24" viewBox="0 0 24 24" fill="none" xmlns="http://www.w3.org/2000/svg">
<path d="M12 3.625C12.7435 3.62497 13.458 3.91296 13.9937 4.42851C14.5294 4.94405 14.8446 5.64707 14.873 6.39L14.875 6.5H18.5C18.6599 6.50052 18.8134 6.56227 18.9292 6.67256C19.0449 6.78285 19.114 6.9333 19.1222 7.09295C19.1304 7.2526 19.0771 7.40933 18.9732 7.53089C18.8694 7.65245 18.723 7.72961 18.564 7.7465L18.5 7.75H17.9545L17.103 19.035C17.0627 19.5694 16.8219 20.0688 16.4289 20.4332C16.036 20.7975 15.5199 21 14.984 21H9.016C8.48011 21 7.964 20.7975 7.57105 20.4332C7.17811 20.0688 6.93735 19.5694 6.897 19.035L6.045 7.75H5.5C5.34527 7.75007 5.19602 7.69274 5.08112 7.58911C4.96622 7.48548 4.89384 7.34292 4.878 7.189L4.875 7.125C4.875 6.8015 5.121 6.535 5.436 6.5035L5.5 6.5H9.125C9.125 5.7375 9.4279 5.00624 9.96707 4.46707C10.5062 3.9279 11.2375 3.625 12 3.625ZM16.701 7.75H7.299L8.144 18.941C8.16064 19.1609 8.25971 19.3665 8.42139 19.5165C8.58308 19.6665 8.79545 19.7499 9.016 19.75H14.984C15.2046 19.75 15.4171 19.6666 15.5789 19.5166C15.7407 19.3666 15.8399 19.161 15.8565 18.941L16.7015 7.75H16.701ZM13.625 10.375C13.9485 10.375 14.215 10.621 14.247 10.936L14.25 11V16.5C14.2507 16.6607 14.1896 16.8155 14.0791 16.9323C13.9687 17.0491 13.8175 17.1188 13.657 17.1271C13.4965 17.1353 13.339 17.0814 13.2172 16.9766C13.0954 16.8717 13.0187 16.7239 13.003 16.564L13 16.5V11C13 10.655 13.28 10.375 13.625 10.375ZM10.375 10.375C10.6985 10.375 10.965 10.621 10.997 10.936L11 11V16.5C11.0007 16.6607 10.9396 16.8155 10.8291 16.9323C10.7187 17.0491 10.5675 17.1188 10.407 17.1271C10.2465 17.1353 10.089 17.0814 9.96723 16.9766C9.84543 16.8717 9.76871 16.7239 9.753 16.564L9.75 16.5V11C9.75 10.655 10.03 10.375 10.375 10.375ZM12 4.875C11.5849 4.87497 11.1856 5.03378 10.8839 5.31884C10.5822 5.60389 10.401 5.9936 10.3775 6.408L10.375 6.5H13.625C13.625 6.06902 13.4538 5.6557 13.149 5.35095C12.8443 5.04621 12.431 4.875 12 4.875Z" fill="black"/>
</svg>
