<svg width="92" height="92" viewBox="0 0 92 92" fill="none" xmlns="http://www.w3.org/2000/svg">
<g filter="url(#filter0_d_160_659)">
<path d="M14 30C14 21.1634 21.1634 14 30 14H58C66.8366 14 74 21.1634 74 30V58C74 66.8366 66.8366 74 58 74H30C21.1634 74 14 66.8366 14 58V30Z" fill="#0191EE" shape-rendering="crispEdges"/>
<path d="M30 22H58V6H30V22ZM66 30V58H82V30H66ZM58 66H30V82H58V66ZM22 58V30H6V58H22ZM30 66C25.5817 66 22 62.4183 22 58H6C6 71.2548 16.7452 82 30 82V66ZM66 58C66 62.4183 62.4183 66 58 66V82C71.2548 82 82 71.2548 82 58H66ZM58 22C62.4183 22 66 25.5817 66 30H82C82 16.7452 71.2548 6 58 6V22ZM30 6C16.7452 6 6 16.7452 6 30H22C22 25.5817 25.5817 22 30 22V6Z" fill="white" fill-opacity="0.2"/>
</g>
<path d="M31 44.1333L39.6667 53L57 34" stroke="white" stroke-width="2.25" stroke-linecap="round" stroke-linejoin="round"/>
<defs>
<filter id="filter0_d_160_659" x="0" y="0" width="92" height="92" filterUnits="userSpaceOnUse" color-interpolation-filters="sRGB">
<feFlood flood-opacity="0" result="BackgroundImageFix"/>
<feColorMatrix in="SourceAlpha" type="matrix" values="0 0 0 0 0 0 0 0 0 0 0 0 0 0 0 0 0 0 127 0" result="hardAlpha"/>
<feOffset dx="2" dy="2"/>
<feGaussianBlur stdDeviation="4"/>
<feComposite in2="hardAlpha" operator="out"/>
<feColorMatrix type="matrix" values="0 0 0 0 0 0 0 0 0 0 0 0 0 0 0 0 0 0 0.08 0"/>
<feBlend mode="normal" in2="BackgroundImageFix" result="effect1_dropShadow_160_659"/>
<feBlend mode="normal" in="SourceGraphic" in2="effect1_dropShadow_160_659" result="shape"/>
</filter>
</defs>
</svg>
