<svg width="19" height="23" viewBox="0 0 19 23" fill="none" xmlns="http://www.w3.org/2000/svg">
<path d="M1.09603 0.266735C0.844454 0.441117 0.703613 0.675211 0.703613 0.918975C0.703613 1.16274 0.844454 1.39683 1.09603 1.57121L15.1511 11.3333L1.09603 21.0935C0.844454 21.2679 0.703613 21.502 0.703613 21.7457C0.703613 21.9895 0.844454 22.2236 1.09603 22.398C1.21831 22.483 1.36451 22.5506 1.52601 22.5967C1.6875 22.6429 1.86101 22.6667 2.0363 22.6667C2.21159 22.6667 2.3851 22.6429 2.5466 22.5967C2.70809 22.5506 2.85429 22.483 2.97658 22.398L17.9229 12.0149C18.1854 11.8325 18.3323 11.588 18.3323 11.3333C18.3323 11.0787 18.1854 10.8341 17.9229 10.6518L2.97658 0.268688C2.85429 0.183656 2.70809 0.116071 2.5466 0.0699233C2.3851 0.0237755 2.21159 0 2.0363 0C1.86101 0 1.6875 0.0237755 1.52601 0.0699233C1.36451 0.116071 1.21831 0.183656 1.09603 0.268688V0.266735Z" fill="white"/>
</svg>
