<svg width="20" height="20" viewBox="0 0 20 20" fill="none" xmlns="http://www.w3.org/2000/svg">
<path d="M10 15.9448C15.8667 15.9448 19.9243 11.1987 19.9243 9.71924C19.9243 8.23242 15.8594 3.49365 10 3.49365C4.20654 3.49365 0.0683594 8.23242 0.0683594 9.71924C0.0683594 11.1987 4.20654 15.9448 10 15.9448ZM10 13.7988C7.71484 13.7988 5.90576 11.9458 5.89844 9.71924C5.89111 7.43408 7.71484 5.63965 10 5.63965C12.2632 5.63965 14.0942 7.43408 14.0942 9.71924C14.0942 11.9458 12.2632 13.7988 10 13.7988ZM10 11.1914C10.813 11.1914 11.4868 10.5249 11.4868 9.71924C11.4868 8.90625 10.813 8.23975 10 8.23975C9.17969 8.23975 8.50586 8.90625 8.50586 9.71924C8.50586 10.5249 9.17969 11.1914 10 11.1914Z" fill="#26292D"/>
</svg>
