<svg width="91" height="92" viewBox="0 0 91 92" fill="none" xmlns="http://www.w3.org/2000/svg">
<g filter="url(#filter0_d_171_641)">
<path d="M14.0559 30C14.0559 21.1634 21.2194 14 30.0559 14H57.0002C65.8368 14 73.0002 21.1634 73.0002 30V58C73.0002 66.8366 65.8367 74 57.0002 74H30.0559C21.2193 74 14.0559 66.8366 14.0559 58V30Z" fill="#0191EE" shape-rendering="crispEdges"/>
<path d="M30.0559 22H57.0002V6H30.0559V22ZM65.0002 30V58H81.0002V30H65.0002ZM57.0002 66H30.0559V82H57.0002V66ZM22.0559 58V30H6.05591V58H22.0559ZM30.0559 66C25.6376 66 22.0559 62.4183 22.0559 58H6.05591C6.05591 71.2548 16.801 82 30.0559 82V66ZM65.0002 58C65.0002 62.4183 61.4185 66 57.0002 66V82C70.255 82 81.0002 71.2548 81.0002 58H65.0002ZM57.0002 22C61.4185 22 65.0002 25.5817 65.0002 30H81.0002C81.0002 16.7452 70.2551 6 57.0002 6V22ZM30.0559 6C16.8011 6 6.05591 16.7452 6.05591 30H22.0559C22.0559 25.5817 25.6376 22 30.0559 22V6Z" fill="white" fill-opacity="0.2"/>
</g>
<path d="M34.096 32.2667C33.8445 32.4411 33.7036 32.6752 33.7036 32.919C33.7036 33.1627 33.8445 33.3968 34.096 33.5712L48.1511 43.3333L34.096 53.0935C33.8445 53.2679 33.7036 53.502 33.7036 53.7457C33.7036 53.9895 33.8445 54.2236 34.096 54.398C34.2183 54.483 34.3645 54.5506 34.526 54.5967C34.6875 54.6429 34.861 54.6667 35.0363 54.6667C35.2116 54.6667 35.3851 54.6429 35.5466 54.5967C35.7081 54.5506 35.8543 54.483 35.9766 54.398L50.9229 44.0149C51.1854 43.8325 51.3323 43.588 51.3323 43.3333C51.3323 43.0787 51.1854 42.8341 50.9229 42.6518L35.9766 32.2687C35.8543 32.1837 35.7081 32.1161 35.5466 32.0699C35.3851 32.0238 35.2116 32 35.0363 32C34.861 32 34.6875 32.0238 34.526 32.0699C34.3645 32.1161 34.2183 32.1837 34.096 32.2687V32.2667Z" fill="white"/>
<defs>
<filter id="filter0_d_171_641" x="0.0559082" y="0" width="90.9443" height="92" filterUnits="userSpaceOnUse" color-interpolation-filters="sRGB">
<feFlood flood-opacity="0" result="BackgroundImageFix"/>
<feColorMatrix in="SourceAlpha" type="matrix" values="0 0 0 0 0 0 0 0 0 0 0 0 0 0 0 0 0 0 127 0" result="hardAlpha"/>
<feOffset dx="2" dy="2"/>
<feGaussianBlur stdDeviation="4"/>
<feComposite in2="hardAlpha" operator="out"/>
<feColorMatrix type="matrix" values="0 0 0 0 0 0 0 0 0 0 0 0 0 0 0 0 0 0 0.08 0"/>
<feBlend mode="normal" in2="BackgroundImageFix" result="effect1_dropShadow_171_641"/>
<feBlend mode="normal" in="SourceGraphic" in2="effect1_dropShadow_171_641" result="shape"/>
</filter>
</defs>
</svg>
