<svg width="27" height="24" viewBox="0 0 27 24" fill="none" xmlns="http://www.w3.org/2000/svg">
<g clip-path="url(#clip0_183_1276)">
<path d="M23.3485 4.61C22.7799 4.099 22.1047 3.69364 21.3616 3.41708C20.6185 3.14052 19.8221 2.99817 19.0177 2.99817C18.2133 2.99817 17.4168 3.14052 16.6737 3.41708C15.9306 3.69364 15.2555 4.099 14.6868 4.61L13.5067 5.67L12.3265 4.61C11.1779 3.57831 9.62007 2.99871 7.99568 2.99871C6.37129 2.99871 4.81343 3.57831 3.66481 4.61C2.5162 5.64169 1.87091 7.04097 1.87091 8.5C1.87091 9.95903 2.5162 11.3583 3.66481 12.39L4.84495 13.45L13.5067 21.23L22.1684 13.45L23.3485 12.39C23.9175 11.8792 24.3688 11.2728 24.6767 10.6054C24.9846 9.93789 25.143 9.22249 25.143 8.5C25.143 7.77751 24.9846 7.0621 24.6767 6.39464C24.3688 5.72718 23.9175 5.12075 23.3485 4.61V4.61Z" stroke="white" stroke-width="2" stroke-linecap="round" stroke-linejoin="round"/>
</g>
<defs>
<clipPath id="clip0_183_1276">
<rect width="26.72" height="24" fill="white" transform="translate(0.146667)"/>
</clipPath>
</defs>
</svg>
