<svg width="27" height="25" viewBox="0 0 27 25" fill="none" xmlns="http://www.w3.org/2000/svg">
<g clip-path="url(#clip0_183_1309)">
<path d="M23.3485 4.99964C22.7799 4.48865 22.1047 4.08329 21.3616 3.80673C20.6185 3.53016 19.8221 3.38782 19.0177 3.38782C18.2133 3.38782 17.4168 3.53016 16.6737 3.80673C15.9306 4.08329 15.2555 4.48865 14.6868 4.99964L13.5067 6.05964L12.3265 4.99964C11.1779 3.96795 9.62007 3.38835 7.99568 3.38835C6.37129 3.38835 4.81343 3.96795 3.66481 4.99964C2.5162 6.03134 1.87091 7.43061 1.87091 8.88964C1.87091 10.3487 2.5162 11.748 3.66481 12.7796L4.84495 13.8396L13.5067 21.6196L22.1684 13.8396L23.3485 12.7796C23.9175 12.2689 24.3688 11.6625 24.6767 10.995C24.9846 10.3275 25.143 9.61213 25.143 8.88964C25.143 8.16716 24.9846 7.45175 24.6767 6.78429C24.3688 6.11683 23.9175 5.5104 23.3485 4.99964V4.99964Z" fill="white" stroke="white" stroke-width="2" stroke-linecap="round" stroke-linejoin="round"/>
</g>
<defs>
<clipPath id="clip0_183_1309">
<rect width="26.72" height="24" fill="white" transform="translate(0.146667 0.389648)"/>
</clipPath>
</defs>
</svg>
