<svg width="30" height="28" viewBox="0 0 30 28" fill="none" xmlns="http://www.w3.org/2000/svg">
<path d="M26.05 5.37833C25.4116 4.78217 24.6535 4.30925 23.8192 3.98659C22.9849 3.66394 22.0906 3.49786 21.1875 3.49786C20.2844 3.49786 19.3901 3.66394 18.5558 3.98659C17.7215 4.30925 16.9634 4.78217 16.325 5.37833L15 6.61499L13.675 5.37833C12.3854 4.17469 10.6363 3.49849 8.8125 3.49849C6.98871 3.49849 5.23962 4.17469 3.95 5.37833C2.66038 6.58197 1.93589 8.21446 1.93589 9.91666C1.93589 11.6189 2.66038 13.2514 3.95 14.455L5.275 15.6917L15 24.7683L24.725 15.6917L26.05 14.455C26.6887 13.8591 27.1954 13.1516 27.5411 12.3729C27.8868 11.5942 28.0648 10.7596 28.0648 9.91666C28.0648 9.07376 27.8868 8.23911 27.5411 7.46041C27.1954 6.68171 26.6887 5.97421 26.05 5.37833V5.37833Z" stroke="white" stroke-width="2" stroke-linecap="round" stroke-linejoin="round"/>
</svg>
