<svg width="26" height="25" viewBox="0 0 26 25" fill="none" xmlns="http://www.w3.org/2000/svg">
<path d="M25.5816 10.9046L16.006 1.10524C15.6745 0.75474 15.2806 0.476654 14.8469 0.286914C14.4132 0.0971743 13.9483 -0.000488281 13.4788 -0.000488281C13.0092 -0.000488281 12.5443 0.0971743 12.1106 0.286914C11.677 0.476654 11.2831 0.75474 10.9515 1.10524L1.37588 10.9046C1.2543 11.024 1.1566 11.1679 1.08847 11.3277C1.02034 11.4875 0.983149 11.6601 0.979125 11.8353C0.975101 12.0104 1.00434 12.1847 1.06505 12.3478C1.12576 12.5109 1.21674 12.6596 1.33269 12.7851C1.44864 12.9106 1.58721 13.0105 1.74026 13.0788C1.8933 13.1471 2.05773 13.1825 2.22393 13.1829C2.39012 13.1833 2.55471 13.1487 2.70805 13.0811C2.8614 13.0136 3.00042 12.9144 3.11692 12.7894L3.49444 12.4013V22.3684C3.49444 23.0663 3.75742 23.7357 4.22552 24.2292C4.69363 24.7227 5.32852 25 5.99052 25H8.4866C9.1486 25 9.78349 24.7227 10.2516 24.2292C10.7197 23.7357 10.9827 23.0663 10.9827 22.3684V19.7368C10.9827 19.3878 11.1142 19.0532 11.3482 18.8064C11.5823 18.5597 11.8997 18.421 12.2307 18.421H14.7268C15.0578 18.421 15.3752 18.5597 15.6093 18.8064C15.8433 19.0532 15.9748 19.3878 15.9748 19.7368V22.3684C15.9748 23.0663 16.2378 23.7357 16.7059 24.2292C17.174 24.7227 17.8089 25 18.4709 25H20.967C21.629 25 22.2639 24.7227 22.732 24.2292C23.2001 23.7357 23.4631 23.0663 23.4631 22.3684V12.4013L23.8406 12.7894C23.9571 12.9144 24.0961 13.0136 24.2495 13.0811C24.4028 13.1487 24.5674 13.1833 24.7336 13.1829C24.8998 13.1825 25.0642 13.1471 25.2173 13.0788C25.3703 13.0105 25.5089 12.9106 25.6248 12.7851C25.7408 12.6596 25.8318 12.5109 25.8925 12.3478C25.9532 12.1847 25.9824 12.0104 25.9784 11.8353C25.9744 11.6601 25.9372 11.4875 25.869 11.3277C25.8009 11.1679 25.7032 11.024 25.5816 10.9046V10.9046Z" fill="#0191EE"/>
</svg>
