<svg width="19" height="16" viewBox="0 0 19 16" fill="none" xmlns="http://www.w3.org/2000/svg">
<path d="M10.45 13.1562C10.45 13.4151 10.2373 13.625 9.975 13.625H5.225C4.96262 13.625 4.75 13.4151 4.75 13.1562V4.25H1.425C0.637984 4.25 0 4.87988 0 5.65625V14.0938C0 14.8704 0.637984 15.5 1.425 15.5H13.775C14.562 15.5 15.2 14.8704 15.2 14.0938V11.75H10.45V13.1562ZM3.0875 13.3613C3.0875 13.5069 2.96783 13.625 2.82031 13.625H1.92969C1.78217 13.625 1.6625 13.5069 1.6625 13.3613V12.4824C1.6625 12.3368 1.78217 12.2188 1.92969 12.2188H2.82031C2.96783 12.2188 3.0875 12.3368 3.0875 12.4824V13.3613ZM3.0875 10.3145C3.0875 10.46 2.96783 10.5781 2.82031 10.5781H1.92969C1.78217 10.5781 1.6625 10.46 1.6625 10.3145V9.43555C1.6625 9.28997 1.78217 9.17188 1.92969 9.17188H2.82031C2.96783 9.17188 3.0875 9.28997 3.0875 9.43555V10.3145ZM3.0875 7.26758C3.0875 7.41315 2.96783 7.53125 2.82031 7.53125H1.92969C1.78217 7.53125 1.6625 7.41315 1.6625 7.26758V6.38867C1.6625 6.24219 1.78214 6.125 1.92969 6.125H2.82031C2.96783 6.125 3.0875 6.2431 3.0875 6.38867V7.26758ZM12.1125 12.4824C12.1125 12.3368 12.2322 12.2188 12.3797 12.2188H13.2703C13.4178 12.2188 13.5375 12.3368 13.5375 12.4824V13.3613C13.5375 13.5069 13.4178 13.625 13.2703 13.625H12.3797C12.2322 13.625 12.1125 13.5069 12.1125 13.3613V12.4824ZM17.5483 0.5H7.09828C6.33828 0.5 5.67328 1.12959 5.67328 1.90625V9.40625C5.67328 10.1829 6.31127 10.8125 7.09828 10.8125H17.5483C18.3353 10.8125 18.9733 10.1829 18.9733 9.40625V1.90625C19 1.12959 18.3617 0.5 17.5483 0.5ZM8.99828 2.375C9.52316 2.375 9.94828 2.79482 9.94828 3.3125C9.94828 3.83018 9.52316 4.25 8.99828 4.25C8.49953 4.25 8.04828 3.83105 8.04828 3.3125C8.04828 2.79395 8.49953 2.375 8.99828 2.375ZM17.0436 8.69141C16.9605 8.84375 16.8002 8.9375 16.625 8.9375H8.04828C7.87016 8.9375 7.73359 8.83789 7.65047 8.68262C7.57031 8.52441 7.58516 8.33398 7.69203 8.19336L9.77016 5.38086C9.85922 5.25781 10.0017 5.1875 10.1264 5.1875C10.2781 5.1875 10.4207 5.25901 10.5103 5.3801L11.1738 6.27834L13.0364 3.52121C13.1248 3.39072 13.2733 3.3125 13.4573 3.3125C13.6161 3.3125 13.7643 3.39078 13.8525 3.52124L17.0201 8.20874C17.1178 8.35156 17.1267 8.53613 17.0436 8.69141Z" fill="#26292D"/>
</svg>
