<svg width="25" height="25" viewBox="0 0 25 25" fill="none" xmlns="http://www.w3.org/2000/svg">
<path d="M12.5 11.1111C15.4981 11.1111 17.9286 8.62381 17.9286 5.55556C17.9286 2.48731 15.4981 0 12.5 0C9.50187 0 7.07141 2.48731 7.07141 5.55556C7.07141 8.62381 9.50187 11.1111 12.5 11.1111Z" fill="#777C81"/>
<path d="M22 19.4444V20.8333C22 21.9384 21.571 22.9982 20.8075 23.7796C20.044 24.561 19.0084 25 17.9286 25H7.07143C5.99162 25 4.95604 24.561 4.1925 23.7796C3.42895 22.9982 3 21.9384 3 20.8333V19.4444C3 17.6027 3.71492 15.8363 4.98749 14.534C6.26006 13.2316 7.98603 12.5 9.78571 12.5H15.2143C17.014 12.5 18.7399 13.2316 20.0125 14.534C21.2851 15.8363 22 17.6027 22 19.4444V19.4444Z" fill="#777C81"/>
</svg>
