<svg width="10" height="10" viewBox="0 0 10 10" fill="none" xmlns="http://www.w3.org/2000/svg">
<path d="M1.91692 9.92509C2.08644 10.0545 2.29127 10.0138 2.54202 9.82155L5 7.93564L7.45798 9.82155C7.70873 10.0138 7.91709 10.0545 8.08308 9.92509C8.24553 9.79567 8.28438 9.58119 8.18549 9.27057L7.22137 6.24571L9.69701 4.38198C9.94775 4.19339 10.0466 3.9974 9.97954 3.79032C9.91597 3.59063 9.73233 3.4834 9.41448 3.48709L6.37732 3.50558L5.44851 0.46963C5.35316 0.155311 5.20483 0 5 0C4.79517 0 4.64684 0.155311 4.55149 0.46963L3.62268 3.50558L0.585516 3.48709C0.271205 3.4834 0.0840309 3.59063 0.0204624 3.79032C-0.0466378 3.9974 0.0522467 4.19339 0.302989 4.38198L2.77863 6.24571L1.81804 9.27057C1.71562 9.58119 1.75447 9.79567 1.91692 9.92509Z" fill="#BDBDBD"/>
<path fill-rule="evenodd" clip-rule="evenodd" d="M2.54202 9.82155C2.29127 10.0138 2.08644 10.0545 1.91692 9.92509C1.75447 9.79567 1.71562 9.58119 1.81804 9.27057L2.77863 6.24571L0.302989 4.38198C0.0522467 4.19339 -0.0466378 3.9974 0.0204624 3.79032C0.0840309 3.59063 0.271205 3.4834 0.585516 3.48709L3.62268 3.50558L4.55149 0.46963C4.64684 0.155311 4.79517 0 5 0V7.93564L2.54202 9.82155Z" fill="#007AFF"/>
</svg>
