<svg width="26" height="26" viewBox="0 0 26 26" fill="none" xmlns="http://www.w3.org/2000/svg">
<path fill-rule="evenodd" clip-rule="evenodd" d="M0 0H26V26H0V0Z" fill="#E30A17"/>
<path fill-rule="evenodd" clip-rule="evenodd" d="M17.7125 13.4062C17.7125 16.9914 14.752 19.9012 11.1059 19.9012C7.45981 19.9012 4.49927 16.9914 4.49927 13.4012C4.49927 9.81094 7.45474 6.91133 11.1008 6.91133C14.7469 6.91133 17.7176 9.81601 17.7176 13.4062H17.7125Z" fill="white"/>
<path fill-rule="evenodd" clip-rule="evenodd" d="M18.0427 13.4062C18.0427 16.2754 15.6763 18.6012 12.7563 18.6012C9.83643 18.6012 7.4751 16.2754 7.4751 13.4062C7.4751 10.5371 9.83643 8.21133 12.7563 8.21133C15.6763 8.21133 18.0376 10.5371 18.0376 13.4062H18.0427Z" fill="#E30A17"/>
<path fill-rule="evenodd" clip-rule="evenodd" d="M18.9972 10.3695L18.9464 12.7715L16.7019 13.3809L18.9109 14.168L18.8601 16.3668L20.2972 14.6504L22.4757 15.402L21.2164 13.5586L22.75 11.7254L20.3937 12.3754L18.9972 10.3695Z" fill="white"/>
</svg>
