<svg width="26" height="26" viewBox="0 0 26 26" fill="none" xmlns="http://www.w3.org/2000/svg">
<g clip-path="url(#clip0_147_620)">
<path fill-rule="evenodd" clip-rule="evenodd" d="M0 0H49.4005V2.00002H0V0ZM0 4.00004H49.4005V6.00006H0V4.00004ZM0 8.00008H49.4005V10.0001H0V8.00008ZM0 12.0001H49.4005V14.0001H0V12.0001ZM0 16.0002H49.4005V18.0002H0V16.0002ZM0 20.0002H49.4005V22.0002H0V20.0002ZM0 24.0002H49.4005V26.0003H0V24.0002Z" fill="#BD3D44"/>
<path fill-rule="evenodd" clip-rule="evenodd" d="M0 2.00002H49.4005V4.00004H0V2.00002ZM0 6.00006H49.4005V8.00008H0V6.00006ZM0 10.0001H49.4005V12.0001H0V10.0001ZM0 14.0001H49.4005V16.0002H0V14.0001ZM0 18.0002H49.4005V20.0002H0V18.0002ZM0 22.0002H49.4005V24.0002H0V22.0002Z" fill="white"/>
<path fill-rule="evenodd" clip-rule="evenodd" d="M0 0H19.7602V14.0001H0V0Z" fill="#192F5D"/>
<path fill-rule="evenodd" clip-rule="evenodd" d="M1.63994 0.600033L1.83991 1.16H2.39993L1.9399 1.50003L2.11992 2.04004L1.63994 1.70001L1.19992 2.04004L1.37994 1.50003L0.899902 1.16H1.49998L1.63994 0.600033ZM4.93996 0.600033L5.11998 1.16H5.69995L5.21996 1.50003L5.41994 2.04004L4.93996 1.70001L4.45997 2.04004L4.65995 1.50003L4.17997 1.16H4.75994L4.93996 0.600033ZM8.23998 0.600033L8.42 1.16H8.99997L8.51998 1.50003L8.72001 2.04004L8.23998 1.70001L7.75999 2.04004L7.95997 1.50003L7.47998 1.16H8.06001L8.23998 0.600033ZM11.52 0.600033L11.72 1.16H12.28L11.82 1.50003L12 2.04004L11.52 1.70001L11.06 2.04004L11.24 1.50003L10.76 1.16H11.36L11.52 0.600033ZM14.8201 0.600033L15 1.16H15.5801L15.1001 1.50003L15.3 2.04004L14.8001 1.70001L14.34 2.04004L14.52 1.50003L14.0401 1.16H14.62L14.8201 0.600033ZM18.1201 0.600033L18.3001 1.16H18.8801L18.4001 1.50003L18.6001 2.04004L18.1201 1.70001L17.6401 2.04004L17.8401 1.50003L17.3601 1.16H17.9401L18.1201 0.600033ZM3.29993 2.00002L3.47995 2.56004H4.05997L3.57993 2.90002L3.77996 3.44002L3.29993 3.10004L2.81994 3.44002L3.01992 2.90002L2.53993 2.56004H3.11996L3.29993 2.00002ZM6.57999 2.00002L6.77996 2.56004H7.33998L6.87995 2.90002L7.05997 3.44002L6.57999 3.10004L6.11996 3.44002L6.29998 2.90002L5.81995 2.56004H6.41998L6.57999 2.00002ZM9.88001 2.00002L10.06 2.56004H10.64L10.16 2.90002L10.36 3.44002L9.88001 3.10004L9.39997 3.44002L9.6 2.90002L9.12002 2.56004H9.69999L9.88001 2.00002ZM13.18 2.00002L13.36 2.56004H13.94L13.46 2.90002L13.6601 3.44002L13.18 3.10004L12.7 3.44002L12.9 2.90002L12.42 2.56004H13.0001L13.18 2.00002ZM16.4601 2.00002L16.6601 2.56004H17.2001L16.74 2.90002L16.9201 3.44002L16.4401 3.10004L15.9801 3.44002L16.1601 2.90002L15.68 2.56004H16.2801L16.4601 2.00002ZM1.65989 3.40006L1.81991 3.96003H2.41994L1.9399 4.30006L2.11992 4.84006L1.63994 4.50003L1.19992 4.84006L1.37994 4.30006L0.899902 3.96003H1.49998L1.65989 3.40006ZM4.93996 3.40006L5.11998 3.96003H5.69995L5.23997 4.30006L5.41994 4.84006L4.93996 4.50003L4.47993 4.84006L4.65995 4.30006L4.17997 3.96003H4.75994L4.93996 3.40006ZM8.23998 3.40006L8.42 3.96003H8.99997L8.51998 4.30006L8.72001 4.84006L8.23998 4.50003L7.75999 4.84006L7.95997 4.30006L7.47998 3.96003H8.06001L8.23998 3.40006ZM11.52 3.40006L11.72 3.96003H12.28L11.82 4.30006L12 4.84006L11.52 4.50003L11.06 4.84006L11.24 4.30006L10.76 3.96003H11.36L11.52 3.40006ZM14.8201 3.40006L15 3.96003H15.5801L15.1201 4.30006L15.3 4.84006L14.8201 4.50003L14.36 4.84006L14.5401 4.30006L14.0601 3.96003H14.64L14.8201 3.40006ZM18.1201 3.40006L18.3001 3.96003H18.8801L18.4001 4.30006L18.6001 4.84006L18.1201 4.50003L17.6401 4.84006L17.8401 4.30006L17.3601 3.96003H17.9401L18.1201 3.40006ZM3.29993 4.8L3.47995 5.36001H4.05997L3.57993 5.69999L3.77996 6.24L3.29993 5.90002L2.81994 6.24L3.01992 5.69999L2.53993 5.36001H3.11996L3.29993 4.8ZM6.57999 4.8L6.77996 5.36001H7.33998L6.87995 5.69999L7.05997 6.24L6.57999 5.90002L6.11996 6.24L6.29998 5.69999L5.81995 5.36001H6.41998L6.57999 4.8ZM9.88001 4.8L10.06 5.36001H10.64L10.18 5.69999L10.36 6.24L9.88001 5.90002L9.41998 6.24L9.6 5.69999L9.12002 5.36001H9.69999L9.88001 4.8ZM13.18 4.8L13.36 5.36001H13.94L13.46 5.69999L13.6601 6.24005L13.18 5.90007L12.7 6.24005L12.9 5.70005L12.42 5.36006H13.0001L13.18 4.8ZM16.4601 4.8L16.6601 5.36001H17.2001L16.74 5.69999L16.9201 6.24L16.4401 5.90002L15.9801 6.24L16.1601 5.69999L15.68 5.36001H16.2801L16.4601 4.8ZM1.65989 6.20004L1.81991 6.76H2.41994L1.9399 7.10003L2.11992 7.64004L1.63994 7.30001L1.19992 7.64004L1.37994 7.10003L0.899902 6.76H1.49998L1.65989 6.20004ZM4.93996 6.20004L5.11998 6.76H5.69995L5.23997 7.10003L5.41994 7.64004L4.93996 7.30001L4.47993 7.64004L4.65995 7.10003L4.17997 6.76H4.75994L4.93996 6.20004ZM8.23998 6.20004L8.42 6.76H8.99997L8.51998 7.10003L8.72001 7.64004L8.23998 7.30001L7.75999 7.64004L7.95997 7.10003L7.47998 6.76H8.06001L8.23998 6.20004ZM11.52 6.20004L11.72 6.76H12.28L11.82 7.10003L12 7.64004L11.52 7.30001L11.06 7.64004L11.24 7.10003L10.76 6.76H11.36L11.52 6.20004ZM14.8201 6.20004L15 6.76H15.5801L15.1201 7.10003L15.3 7.64004L14.8201 7.30001L14.36 7.64004L14.5401 7.10003L14.0601 6.76H14.64L14.8201 6.20004ZM18.1201 6.20004L18.3001 6.76H18.8801L18.4001 7.10003L18.6001 7.64004L18.1201 7.30001L17.6401 7.64004L17.8401 7.10003L17.3601 6.76H17.9401L18.1201 6.20004ZM3.29993 7.60003L3.47995 8.16004H4.05997L3.57993 8.50002L3.77996 9.04003L3.29993 8.70005L2.81994 9.04003L3.01992 8.50002L2.53993 8.16004H3.11996L3.29993 7.60003ZM6.57999 7.60003L6.77996 8.16004H7.33998L6.87995 8.50002L7.05997 9.04003L6.57999 8.70005L6.11996 9.04003L6.29998 8.50002L5.81995 8.16004H6.41998L6.57999 7.60003ZM9.88001 7.60003L10.06 8.16004H10.64L10.18 8.50002L10.36 9.04003L9.88001 8.70005L9.41998 9.04003L9.6 8.50002L9.12002 8.16004H9.69999L9.88001 7.60003ZM13.18 7.60003L13.36 8.16004H13.94L13.46 8.50002L13.6601 9.04008L13.18 8.7001L12.7 9.04008L12.9 8.50007L12.42 8.16009H13.0001L13.18 7.60003ZM16.4601 7.60003L16.6601 8.16004H17.2001L16.74 8.50002L16.9201 9.04003L16.4401 8.70005L15.9801 9.04003L16.1601 8.50002L15.68 8.16004H16.2801L16.4601 7.60003ZM1.65989 9.00006L1.81991 9.56003H2.41994L1.9399 9.90006L2.11992 10.4401L1.63994 10.1L1.19992 10.4401L1.37994 9.90006L0.899902 9.56003H1.49998L1.65989 9.00006ZM4.93996 9.00006L5.11998 9.56003H5.69995L5.23997 9.90006L5.41994 10.4401L4.93996 10.1L4.47993 10.4401L4.65995 9.90006L4.17997 9.56003H4.75994L4.93996 9.00006ZM8.23998 9.00006L8.42 9.56003H8.99997L8.51998 9.90006L8.72001 10.4401L8.23998 10.1L7.75999 10.4401L7.95997 9.90006L7.47998 9.56003H8.06001L8.23998 9.00006ZM11.52 9.00006L11.72 9.56003H12.28L11.82 9.90006L12 10.4401L11.52 10.1L11.06 10.4401L11.24 9.90006L10.76 9.56003H11.36L11.52 9.00006ZM14.8201 9.00006L15 9.56003H15.5801L15.1201 9.90006L15.3 10.4401L14.8201 10.1L14.36 10.4401L14.5401 9.90006L14.0601 9.56003H14.64L14.8201 9.00006ZM18.1201 9.00006L18.3001 9.56003H18.8801L18.4001 9.90006L18.6001 10.4401L18.1201 10.1L17.6401 10.4401L17.8401 9.90006L17.3601 9.56003H17.9401L18.1201 9.00006ZM3.29993 10.4001L3.47995 10.9601H4.05997L3.57993 11.3001L3.77996 11.8401L3.29993 11.5001L2.81994 11.8401L3.01992 11.3001L2.53993 10.9601H3.11996L3.29993 10.4001ZM6.57999 10.4001L6.77996 10.9601H7.33998L6.87995 11.3001L7.05997 11.8401L6.57999 11.5001L6.11996 11.8401L6.29998 11.3001L5.81995 10.9601H6.41998L6.57999 10.4001ZM9.88001 10.4001L10.06 10.9601H10.64L10.18 11.3001L10.36 11.8401L9.88001 11.5001L9.41998 11.8401L9.6 11.3001L9.12002 10.9601H9.69999L9.88001 10.4001ZM13.18 10.4001L13.36 10.9601H13.94L13.46 11.3001L13.6601 11.8402L13.18 11.5002L12.7 11.8402L12.9 11.3002L12.42 10.9602H13.0001L13.18 10.4001ZM16.4601 10.4001L16.6601 10.9601H17.2001L16.74 11.3001L16.9201 11.8401L16.4401 11.5001L15.9801 11.8401L16.1601 11.3001L15.68 10.9601H16.2801L16.4601 10.4001ZM1.65989 11.8001L1.81991 12.3601H2.41994L1.9399 12.7001L2.11992 13.2401L1.63994 12.9001L1.19992 13.2401L1.37994 12.7001L0.899902 12.3601H1.49998L1.65989 11.8001ZM4.93996 11.8001L5.11998 12.3601H5.69995L5.23997 12.7001L5.41994 13.2401L4.93996 12.9001L4.47993 13.2401L4.65995 12.7001L4.17997 12.3601H4.75994L4.93996 11.8001ZM8.23998 11.8001L8.42 12.3601H8.99997L8.51998 12.7001L8.72001 13.2401L8.23998 12.9001L7.75999 13.2401L7.95997 12.7001L7.47998 12.3601H8.06001L8.23998 11.8001ZM11.52 11.8001L11.72 12.3601H12.28L11.82 12.7001L12 13.2401L11.52 12.9001L11.06 13.2401L11.24 12.7001L10.76 12.3601H11.36L11.52 11.8001ZM14.8201 11.8001L15 12.3601H15.5801L15.1201 12.7001L15.3 13.2401L14.8201 12.9001L14.36 13.2401L14.5401 12.7001L14.0601 12.3601H14.64L14.8201 11.8001ZM18.1201 11.8001L18.3001 12.3601H18.8801L18.4001 12.7001L18.6001 13.2401L18.1201 12.9001L17.6401 13.2401L17.8401 12.7001L17.3601 12.3601H17.9401L18.1201 11.8001Z" fill="white"/>
</g>
<defs>
<clipPath id="clip0_147_620">
<rect width="26" height="26" rx="13" fill="white"/>
</clipPath>
</defs>
</svg>
