<svg width="24" height="24" viewBox="0 0 24 24" fill="none" xmlns="http://www.w3.org/2000/svg">
<path d="M1.87689 3.5438C1.78126 3.68817 2.92876 12.2326 2.91001 12.7726C2.89126 13.3144 2.25751 14.7319 1.82814 15.9807C1.39876 17.2313 0.671262 19.7119 0.783762 19.8057C0.896262 19.8994 8.71126 20.8744 11.1563 20.8125C13.6013 20.7507 17.01 20.0663 19.9313 19.8338C21.8456 19.6819 22.8919 19.5151 23.0456 19.5151C23.1994 19.5151 23.3531 19.4682 23.2594 19.1251C23.1656 18.7819 22.1288 15.7313 21.72 14.6119C21.3113 13.4925 20.7825 12.1613 20.7825 12.1613C20.7825 12.1613 21.1913 9.22692 21.4781 7.30505C21.765 5.38317 21.9769 4.40067 21.9319 4.31067C21.8869 4.22067 15.0338 3.2063 14.8969 3.2063C14.76 3.2063 9.19314 4.71942 8.90626 4.70442C8.61939 4.68755 1.97439 3.39755 1.87689 3.5438Z" fill="#C8C8C8"/>
<path d="M3.96372 12.72C3.96372 12.72 3.14435 4.75686 3.14435 4.70624C3.14435 4.65561 9.08247 5.72624 9.08247 5.72624L12.5962 7.08561C12.5962 7.08561 15.0093 4.26186 15.2493 4.28061C15.4893 4.29936 20.3006 5.01936 20.4825 5.03999C20.6643 5.05874 20.7618 5.18436 20.7225 5.44311C20.685 5.70186 19.6256 12.2831 19.6256 12.2831L11.4168 14.5144L3.96372 12.72Z" fill="#1E85F9"/>
<path d="M9.08252 5.72814L15.2494 4.28064L14.9456 11.9081L12.2044 13.8169L9.44064 12.8963L9.08252 5.72814Z" fill="#136FD8"/>
<path d="M3.96377 12.72L9.44064 12.8962L12.2494 13.5919L14.9456 11.9062C14.9456 11.9062 17.1244 12.0412 17.7319 12.0862C18.3394 12.1312 19.6275 12.2812 19.6275 12.2812C19.6275 12.2812 21.9563 18.3263 21.9994 18.4031C22.0425 18.48 21.9994 18.6337 21.8456 18.6544C21.6919 18.675 19.8975 18.7631 19.8975 18.7631C19.8975 18.7631 19.1213 18.4781 18.5513 18.555C17.9831 18.6319 17.0963 19.1025 17.0963 19.1025L15.9038 19.2338C15.9038 19.2338 15.7069 18.96 15.5531 18.8063C15.3994 18.6525 15.1481 18.5438 15.1481 18.5438L12.3094 17.8031L8.72252 19.6987C8.72252 19.6987 2.48627 19.1362 2.23689 19.0969C1.98752 19.0575 1.87127 19.005 1.97439 18.6919C2.07939 18.3788 3.96377 12.72 3.96377 12.72Z" fill="#36B4E2"/>
<path d="M9.44064 12.8962C9.44064 12.8962 10.5206 12.8212 12.195 12.5606C14.0513 12.2718 14.9475 11.9343 14.9475 11.9343L15.1875 19.3725C15.1875 19.3725 13.4231 19.7437 12.0225 19.7643C10.6219 19.785 8.72064 19.7006 8.72064 19.7006L9.44064 12.8962Z" fill="#6CCBF6"/>
<path d="M9.08252 5.72816L9.24565 9.00942C9.24565 9.00942 9.37689 8.70192 9.60002 8.64567C9.82502 8.58942 10.2356 8.51441 10.2638 8.37566C10.2919 8.23504 10.1606 7.83379 10.1981 7.64629C10.2356 7.45879 10.4044 7.32942 10.3856 6.95442C10.3669 6.58129 10.1981 6.57191 10.2356 6.38441C10.2731 6.19691 10.3294 6.03941 10.4325 5.87066C10.5356 5.70191 10.5919 5.69254 10.6575 5.58192C10.71 5.49379 10.7325 5.33816 10.7325 5.33816L9.08252 5.72816ZM11.4788 6.15192C11.43 6.33754 11.3663 6.43129 11.4975 6.53441C11.6288 6.63754 11.6944 6.78754 11.7225 6.85129C11.7506 6.91692 11.76 7.06691 11.9194 7.06691C12.0788 7.06691 12.1163 6.89816 12.1444 6.75941C12.1631 6.66566 12.2006 6.43317 12.2006 6.43317C12.2006 6.43317 12.5269 6.23629 12.48 6.08817C12.4331 5.93817 12.2456 5.91941 12.0225 5.94754C11.7919 5.97379 11.535 5.93629 11.4788 6.15192ZM13.9725 5.18066C14.0381 5.14316 14.1413 4.91066 14.2256 4.86379C14.31 4.81691 14.4019 4.81316 14.4506 4.93879C14.5538 5.20879 14.7038 5.21816 14.6756 5.37754C14.6475 5.53692 14.3306 5.49941 14.2556 5.55566C14.1806 5.61191 14.0025 5.68691 13.8919 5.65879C13.7794 5.63066 13.4531 5.45254 13.5656 5.27629C13.6425 5.14504 13.9725 5.18066 13.9725 5.18066ZM15.1031 7.92004C15.1031 7.92004 14.9588 7.96129 14.9138 8.14879C14.8688 8.33629 14.85 8.36817 14.85 8.36817C14.85 8.36817 14.6888 8.52192 14.5463 8.59317C14.4038 8.66442 14.2894 8.76754 14.2894 8.76754C14.2894 8.76754 14.0381 8.72817 13.8581 8.81254C13.6781 8.89691 13.6125 9.03191 13.6125 9.03191C13.6125 9.03191 13.8825 10.2169 13.8825 10.1982C13.8825 10.1794 15.0525 9.63379 15.0525 9.63379L15.1031 7.92004ZM13.0706 8.68129C13.0706 8.68129 12.7181 8.40566 12.5325 8.38691C12.42 8.37566 12.045 8.48254 11.9756 8.58192C11.9063 8.68317 11.6663 9.06942 11.5706 9.26442C11.475 9.45941 11.1113 9.72004 11.1469 9.93379C11.1956 10.2225 11.4638 10.1607 11.4638 10.1607L11.7225 10.155L11.8369 9.59817L12.4744 8.96067L13.0706 8.68129Z" fill="#C8C8C8"/>
<path d="M10.1175 12.8212C10.1175 12.8212 10.2037 12.6281 10.3781 12.5231C10.5525 12.4181 11.1581 12.0318 11.2725 12.0318C11.3869 12.0318 11.5331 12.1668 11.6006 12.2437C11.6681 12.3206 11.7169 12.3974 11.7731 12.4068C11.8294 12.4162 12.3019 12.4162 12.5812 12.3787C12.8606 12.3393 13.1194 12.2156 13.1194 12.1087C13.1194 12.0018 12.7631 11.9249 12.705 11.9156C12.6469 11.9062 12.3881 11.9549 12.3581 11.9737C12.33 11.9924 12.2719 12.0599 12.1744 12.0412C12.0787 12.0224 11.9137 11.8781 11.8462 11.7806C11.7787 11.6849 11.6625 11.5406 11.5387 11.5499C11.4131 11.5593 11.2687 11.5987 11.2012 11.6456C11.1337 11.6943 10.8937 12.0018 10.8075 12.0599C10.7212 12.1181 10.4906 12.0881 10.4137 11.9437C10.3369 11.7993 10.3275 11.6362 10.3744 11.5874C10.4231 11.5387 10.5862 11.5106 10.6237 11.4618C10.6631 11.4131 10.575 11.1824 10.6725 11.1056C10.7681 11.0287 11.0381 11.1056 11.0569 11.0868C11.0756 11.0681 11.3062 10.7587 11.3269 10.6931C11.3456 10.6256 11.3362 10.4906 11.3756 10.4718C11.415 10.4531 11.5875 10.4324 11.6156 10.4718C11.6437 10.5112 11.7994 10.5674 11.9437 10.5299C12.0881 10.4924 12.3375 10.2224 12.3375 10.1156C12.3375 10.0087 12.2212 9.98994 12.1931 9.90369C12.165 9.81744 12.2606 9.69182 12.3469 9.60557C12.4331 9.51932 12.4912 9.40307 12.4144 9.34494C12.3375 9.28682 12.2606 9.35432 12.1744 9.44994C12.0881 9.54557 11.9437 9.72932 11.9437 9.82494C11.9437 9.92057 12.06 10.1718 11.9831 10.2187C11.9062 10.2656 11.8106 10.3818 11.7525 10.3443C11.6944 10.3049 11.4656 10.1587 11.4656 10.1587C11.4656 10.1587 11.4356 9.99744 11.5594 9.79682C11.685 9.59432 12.0506 9.04682 12.3187 8.85369C12.5869 8.66057 12.9806 8.61182 12.9806 8.61182C12.9806 8.61182 13.1475 8.68119 13.2131 8.74869C13.2806 8.81619 13.3575 9.00932 13.29 9.08619C13.2225 9.16307 13.0875 9.17244 13.0875 9.17244C13.0875 9.17244 13.1269 9.36557 13.2412 9.37494C13.3575 9.38432 13.6106 9.03182 13.6106 9.03182C13.6106 9.03182 13.8 9.00932 13.9444 9.05807C14.0887 9.10682 14.1281 9.27932 14.2612 9.33744C14.3962 9.39557 14.6662 9.35619 14.7994 9.41432C14.9344 9.47244 15.0487 9.62619 15.0487 9.62619L14.9437 11.9362C14.9437 11.9362 13.7062 12.3281 12.5662 12.5137C11.4619 12.6937 10.1175 12.8212 10.1175 12.8212Z" fill="#40C252"/>
<path d="M10.6594 10.065C10.5769 10.0837 10.5319 10.1362 10.5394 10.2056C10.5469 10.2769 10.5244 10.3819 10.5244 10.3819C10.5244 10.3819 10.3406 10.4944 10.3762 10.6219C10.4119 10.7494 10.5094 10.7494 10.6162 10.8187C10.7231 10.8881 10.8337 10.9106 10.905 10.8675C10.9762 10.8244 11.0981 10.6744 11.0325 10.5581C10.9331 10.3819 10.9406 10.0012 10.6594 10.065Z" fill="#40C252"/>
<path d="M5.95874 5.16187C5.95874 5.16187 5.94936 5.32312 5.91561 5.40749C5.88186 5.49187 5.72249 5.58561 5.72999 5.82186C5.73936 6.05999 5.68686 6.23624 5.76936 6.32624C5.89874 6.46874 5.90061 6.77999 5.90061 6.77999C5.90061 6.77999 5.78249 6.89062 5.79936 7.06874C5.81624 7.24687 5.95686 7.34624 6.35249 7.31624C6.60561 7.29749 6.70311 7.26374 6.71999 7.14562C6.73686 7.02749 6.81186 6.73499 6.84561 6.51562C6.87936 6.29624 6.96561 6.08812 6.96561 6.08812C6.96561 6.08812 7.11749 6.02812 7.18499 5.96999C7.25249 5.90999 7.32936 5.86874 7.40436 5.87624C7.48124 5.88562 7.54874 6.04499 7.54874 6.04499C7.54874 6.04499 7.40811 6.22124 7.25624 6.35624C7.10436 6.49124 7.08561 6.56811 7.12124 6.75186C7.15499 6.92249 7.23374 7.03687 7.34436 7.04624C7.45499 7.05562 7.53936 7.01999 7.66686 7.04624C7.79436 7.07249 7.85249 7.19811 7.85249 7.19811C7.85249 7.19811 7.97061 7.42687 8.03061 7.60499C8.09061 7.78312 8.17499 8.07187 8.18249 8.17312C8.19186 8.27437 8.13561 8.76374 8.17874 8.94937C8.22186 9.13499 8.52936 9.77436 8.69999 9.78186C8.86874 9.79124 8.92874 9.55311 8.97186 9.45187C9.01499 9.35062 9.24374 9.01311 9.24374 9.01311L9.08061 5.73187L5.95874 5.16187Z" fill="#E0E0E0"/>
<path d="M3.50623 8.26683C3.50623 8.26683 3.59435 8.13371 3.67873 8.10933C3.7631 8.08496 3.92435 8.00808 3.92435 7.94808C3.92435 7.88808 3.89998 7.73433 3.94123 7.58433C3.98435 7.43246 4.26373 7.25433 4.66123 7.25246C4.96498 7.25058 5.10185 7.43996 5.15998 7.54308C5.21998 7.64433 5.24435 7.97433 5.2706 8.02683C5.29685 8.07933 5.38873 8.1787 5.48998 8.1787C5.59123 8.1787 5.62498 8.13558 5.62498 8.06058C5.62498 7.98371 5.58185 7.92558 5.63435 7.81496C5.68498 7.70433 5.76185 7.59558 6.04873 7.55996C6.33748 7.52621 6.66185 7.49058 6.76123 7.51683C6.92998 7.56371 7.2281 7.84683 7.27873 7.90683C7.32935 7.96683 7.37998 8.20308 7.39685 8.30433C7.41373 8.40558 7.57498 8.5837 7.6256 8.6437C7.67623 8.7037 7.6931 9.11808 7.3631 9.13496C7.0331 9.15183 7.0331 8.76183 7.0331 8.66058C7.0331 8.55933 6.99935 8.44871 6.94873 8.43183C6.8981 8.41496 6.68248 8.39996 6.65998 8.44871C6.58498 8.61371 6.68623 8.72058 6.6431 8.77871C6.59998 8.83871 5.9906 9.3637 5.95685 9.46496C5.9231 9.56621 5.82935 9.73683 5.93998 9.87183C6.0506 10.0068 6.4481 10.1512 6.52498 10.1943C6.60185 10.2375 6.7631 10.11 6.74435 10.0162C6.72748 9.92245 6.63373 9.82121 6.63373 9.71058C6.63373 9.59996 6.7781 9.39745 6.86248 9.38058C6.94685 9.3637 7.1681 9.57558 7.1681 9.57558C7.1681 9.57558 7.50748 9.54933 7.59185 9.60933C7.67623 9.66933 7.6931 9.86433 7.6931 9.86433L7.80373 10.05C7.80373 10.05 7.32935 10.8543 7.3031 10.8637C7.27685 10.8731 4.12685 10.6612 4.12685 10.6612L3.5681 8.90808L3.50623 8.26683Z" fill="#E0E0E0"/>
<path d="M3.86626 11.7769C3.86626 11.7769 4.00126 12.0394 4.04251 12.1407C4.08563 12.2419 4.17751 12.3863 4.21126 12.4538C4.24501 12.5213 4.40626 12.7088 4.53376 12.6994C4.66126 12.69 4.64438 12.285 4.75313 12.3188C4.86376 12.3525 4.90501 12.5738 4.94813 12.6244C4.99126 12.675 5.05876 12.7594 5.05876 12.7594L5.47313 12.9788L5.60813 12.7594C5.60813 12.7594 5.60813 12.5982 5.63438 12.5644C5.66063 12.5307 5.94001 12.345 5.98126 12.3263C6.02438 12.3094 6.37313 12.3769 6.47251 12.3525C6.67688 12.3019 7.04063 11.8444 7.11563 11.7094C7.19251 11.5744 7.31813 11.43 7.37063 11.3532C7.42126 11.2763 7.38001 11.1882 7.38001 11.1882C7.38001 11.1882 7.66126 11.2294 7.76251 11.0175C7.81501 10.9069 7.80938 10.7682 7.80938 10.7682C7.80938 10.7682 8.07188 10.5732 8.07188 10.4382C8.07188 10.3032 7.80001 10.0482 7.80001 10.0482C7.80001 10.0482 7.56188 10.2094 7.35188 10.3275C7.14188 10.4457 6.87751 10.5413 6.55501 10.4907C6.23251 10.44 6.13313 10.395 6.07313 10.3444C6.01313 10.2938 5.94001 10.1363 5.87438 10.05C5.73188 9.86628 5.47313 9.79315 5.43001 9.65815C5.38688 9.52315 5.64938 9.34503 5.54063 9.15753C5.43001 8.9719 5.04938 9.07315 4.83751 9.12378C4.62563 9.1744 4.33688 9.26815 4.28626 9.25128C4.23563 9.2344 4.27688 9.0994 4.08376 8.92878C3.91313 8.77878 3.52313 8.46753 3.52313 8.46753L3.86626 11.7769Z" fill="#7ADC8A"/>
<path d="M5.06061 12.7612H5.61186C5.61186 12.7612 5.62686 12.855 5.66248 12.8831C5.69811 12.9112 5.78998 12.9694 5.84061 12.9619C5.89123 12.9544 6.01123 12.8006 6.14623 12.8137C6.34873 12.8362 6.48186 12.9375 6.53811 13.0237C6.59436 13.1081 6.63186 13.3331 6.73873 13.4044C6.84561 13.4756 7.03498 13.365 7.36311 13.4044C7.59936 13.4325 7.66123 13.4325 7.71748 13.4812C7.77373 13.53 7.83561 13.6687 7.87686 13.6762C7.91811 13.6837 8.03623 13.6275 8.11311 13.6481C8.18998 13.6687 8.45248 13.9594 8.55748 14.0287C8.66061 14.0981 8.75811 14.1881 8.75811 14.1881C8.75811 14.1881 8.90436 14.1262 9.05623 14.2012C9.20811 14.2781 9.23811 14.4675 9.23811 14.4675C9.23811 14.4675 9.28123 14.8669 8.93061 15.3994C8.51998 16.0237 8.37561 16.2319 8.27248 16.35C8.16936 16.4681 7.89748 16.635 7.79436 16.7737C7.69123 16.9125 7.63498 17.01 7.64248 17.0719C7.64998 17.1337 7.65561 17.3006 7.60873 17.4056C7.55998 17.5087 7.52623 17.5087 7.51123 17.6344C7.49623 17.76 7.60123 17.9737 7.51873 18.0506C7.43623 18.1275 7.15873 18.0844 7.00498 17.8144C6.85311 17.5444 6.88686 17.1131 6.93561 16.8712C6.98436 16.6294 7.14373 16.1081 7.15123 15.7762C7.15873 15.4425 6.96373 15.0975 6.77061 14.9156C6.57748 14.7337 6.52123 14.6737 6.52123 14.3681C6.52123 14.16 6.63186 14.0625 6.63186 14.0625L6.65248 13.7644C6.65248 13.7644 6.42936 13.7231 6.35436 13.6256C6.27748 13.5281 6.20248 13.4456 6.10498 13.4175C6.00748 13.3894 5.78436 13.4494 5.60623 13.3669C5.53311 13.3331 5.37936 13.1831 5.31561 13.14C5.14873 13.0312 5.06061 12.7612 5.06061 12.7612Z" fill="#D0FE8B"/>
<path d="M6.8006 19.53C6.8006 19.53 6.8606 19.41 6.9806 19.35C7.1006 19.29 7.27122 19.2225 7.27872 19.17C7.28622 19.1175 7.39872 18.7819 7.54872 18.7819C7.69872 18.7819 7.65372 18.9769 7.66122 19.0444C7.66872 19.1119 7.73622 19.1644 7.72122 19.2769C7.70622 19.3894 7.63872 19.3819 7.63872 19.4419C7.63872 19.5019 7.65372 19.6069 7.65372 19.6069L6.8006 19.53Z" fill="#E0E0E0"/>
<path d="M10.1175 12.8212C10.1175 12.8212 9.96564 12.9787 9.96564 13.0706C9.96564 13.1625 9.91689 13.5562 10.0069 13.7531C10.0969 13.95 10.1381 14.0325 10.2956 14.0906C10.4513 14.1487 10.5338 14.1975 10.6744 14.1975C10.815 14.1975 10.9781 14.2144 11.0531 14.2219C11.1281 14.2294 11.3081 14.3625 11.3419 14.4037C11.3756 14.445 11.4 14.6662 11.4413 14.7244C11.4825 14.7825 11.6475 14.8894 11.6475 14.8894C11.6475 14.8894 11.5725 15.3412 11.6644 15.5569C11.7544 15.7706 11.8294 16.0762 11.8875 16.2244C11.9456 16.3725 12.1669 16.5787 12.2325 16.6275C12.2981 16.6762 12.4463 16.5937 12.5531 16.4962C12.66 16.3987 12.9075 16.11 12.9656 16.0519C13.0238 15.9937 13.0238 15.8287 13.08 15.7556C13.1381 15.6806 13.0875 15.5325 13.17 15.435C13.2525 15.3356 13.4325 15.1969 13.4494 15.09C13.4663 14.9831 13.4081 14.6775 13.4663 14.58C13.5244 14.4806 13.77 14.1525 13.8525 14.0775C13.935 14.0025 13.9931 13.8394 13.9425 13.7887C13.8919 13.7381 13.5713 13.755 13.4813 13.6987C13.3913 13.6406 13.2338 13.395 13.1925 13.3125C13.1513 13.23 13.0031 13.0331 12.9788 12.9506C12.9544 12.8681 13.11 12.7781 13.1513 12.8025C13.1925 12.8269 13.3988 13.1569 13.4813 13.2712C13.5638 13.3856 13.5638 13.4269 13.6219 13.4437C13.68 13.4606 13.845 13.4775 13.8844 13.4437C13.9256 13.41 14.0906 13.3294 14.1638 13.2712C14.2388 13.2131 14.3606 13.1644 14.3531 13.1062C14.3456 13.0481 14.3194 12.9169 14.2781 12.9C14.2369 12.8831 14.0063 12.9169 14.0063 12.9169C14.0063 12.9169 13.7831 12.6544 13.7681 12.6037C13.7531 12.5531 13.875 12.4894 13.9575 12.5456C14.04 12.6019 14.2294 12.6937 14.2781 12.7106C14.3269 12.7275 14.5575 12.7931 14.6325 12.7931C14.7075 12.7931 14.9944 12.9656 14.9944 12.9656L14.9475 11.9381C14.9475 11.9381 13.695 12.3394 12.57 12.5156C11.4038 12.6956 10.1175 12.8212 10.1175 12.8212Z" fill="#E3FFAD"/>
<path d="M9.99939 19.74C9.99939 19.74 10.4363 19.4644 10.515 19.4194C10.5938 19.3744 11.0813 19.1644 11.2388 19.1213C11.3288 19.0969 12.2269 19.0406 12.39 19.0444C12.6 19.0481 12.7894 19.11 13.0181 19.0988C13.2469 19.0875 13.845 19.1569 13.9594 19.0875C14.0738 19.0181 14.6138 18.6075 14.7281 18.5588C14.8688 18.5006 15.1613 18.5513 15.1613 18.5513L15.1875 19.3706C15.1875 19.3706 13.4044 19.7419 12.0225 19.7625C10.6425 19.7869 9.99939 19.74 9.99939 19.74ZM16.59 5.78438C16.395 5.67938 16.3144 5.99438 16.2844 6.07501C16.2544 6.15751 16.2263 6.28688 16.2769 6.38063C16.3369 6.49313 16.4719 6.52313 16.53 6.57563C16.5881 6.62813 16.7831 6.68813 16.8356 6.49313C16.8881 6.29813 16.7381 6.13501 16.7381 6.13501C16.7381 6.13501 16.7475 5.86876 16.59 5.78438ZM15.1031 7.92188C15.1031 7.92188 15.2119 7.89188 15.2513 7.96688C15.2738 8.00813 15.2775 8.04376 15.3038 8.07188C15.33 8.10001 15.6394 8.12438 15.6694 8.07938C15.6994 8.03438 15.93 7.61626 16.1775 7.46626C16.425 7.31626 16.7156 7.27876 16.8431 7.21876C16.9706 7.15876 16.9856 6.96563 17.1338 6.96563C17.2819 6.96563 17.7169 7.25626 17.7469 7.30876C17.7769 7.36126 17.6794 7.50376 17.5894 7.61438C17.4994 7.72688 17.3569 7.80188 17.4394 7.85438C17.5219 7.90688 17.8125 7.95188 17.9775 7.95938C18.1425 7.96688 18.2381 7.90688 18.3656 7.96688C18.4931 8.02688 18.4406 8.29501 18.5156 8.31001C18.5906 8.32501 18.9788 8.35501 19.1063 8.28001C19.2338 8.20501 19.2038 8.09251 19.3388 8.06251C19.4738 8.03251 19.6069 8.01751 19.7344 8.12251C19.8619 8.22751 19.9875 8.34001 20.055 8.39813C20.1225 8.45813 20.235 8.48063 20.235 8.48063L20.0813 9.44063C20.0813 9.44063 19.0463 9.90751 18.9506 9.90751C18.8531 9.90751 15.0281 10.1006 15.0281 10.1006L15.1031 7.92188Z" fill="#E0E0E0"/>
<path d="M15.0544 9.62628C15.0544 9.62628 15.1256 9.73691 15.1481 9.78191C15.1706 9.82691 15.2906 9.87191 15.3506 9.81941C15.4106 9.76691 15.3731 9.37878 15.4106 9.32628C15.4481 9.27378 15.8213 9.31878 15.8513 9.29628C15.8813 9.27378 16.0763 9.19878 16.1569 9.24378C16.2394 9.28878 16.3744 9.49691 16.485 9.49128C16.5975 9.48378 16.7325 9.52878 16.8206 9.42378C16.9106 9.31878 17.0531 9.11816 17.2463 9.05066C17.4394 8.98316 17.5669 8.96816 17.5969 8.93816C17.6269 8.90816 17.8875 8.55753 17.985 8.52003C18.0825 8.48253 18.2531 8.50503 18.3206 8.52003C18.3881 8.53503 18.4181 8.56503 18.4256 8.71503C18.4331 8.86503 18.4706 9.00566 18.5006 9.05066C18.5306 9.09566 18.7538 9.30378 18.8213 9.31128C18.8888 9.31878 19.0969 9.26628 19.2994 9.31128C19.5019 9.35628 19.8075 9.45378 19.8825 9.45378C19.9575 9.45378 20.0775 9.44441 20.0775 9.44441L19.9875 10.0032C19.9875 10.0032 19.9331 9.96753 19.7981 9.99003C19.6631 10.0125 19.6031 10.1025 19.515 10.08C19.4269 10.0575 19.3275 10.0275 19.2675 10.05C19.2075 10.0725 18.8944 10.4082 18.9319 10.4907C18.9694 10.5732 19.245 10.4982 19.32 10.5507C19.395 10.6032 19.5 10.6932 19.5 10.7532C19.5 10.8132 19.5 10.9932 19.4475 11.0288C19.395 11.0663 19.1569 11.0588 19.1044 11.0963C19.0519 11.1338 19.1044 11.2988 19.0219 11.4019C18.9394 11.5069 18.6713 11.7375 18.6713 11.7375C18.6713 11.7375 18.63 11.88 18.6056 11.9269C18.5625 12.0188 18.495 12.12 18.45 12.1125C18.405 12.105 18.2025 11.8294 18.1069 11.8219C18.0094 11.8144 18.0394 12.1125 18.0394 12.1125L14.9475 11.9363L15.0544 9.62628ZM19.4756 11.4188C19.4681 11.3775 19.305 11.3494 19.2675 11.4057C19.23 11.4619 19.1231 11.6063 19.0669 11.7263C19.0106 11.8463 18.8775 12.1032 18.9731 12.1594C19.0275 12.1913 19.2638 12.0244 19.3594 11.8744C19.3819 11.8388 19.5075 11.6082 19.4756 11.4188Z" fill="#7ADC8A"/>
<path d="M18.0394 12.1125L14.9494 11.9343L14.9963 12.9618C14.9963 12.9618 15.1032 13.0931 15.1463 13.2243C15.1894 13.3556 15.2907 13.6087 15.36 13.7156C15.4294 13.8225 15.4425 14.0175 15.6057 13.9987C15.7688 13.98 15.7575 13.7718 15.8063 13.6331C15.8569 13.4943 15.9825 13.3687 16.0332 13.3256C16.0838 13.2825 16.1907 13.1625 16.2413 13.1812C16.2919 13.2 16.3744 13.3575 16.4419 13.4456C16.5544 13.59 16.875 13.7287 16.875 13.7287C16.875 13.7287 17.3325 13.8656 17.3963 13.665C17.4525 13.4887 17.3363 13.2581 17.3775 13.1812C17.43 13.0875 17.625 13.0837 17.8125 13.0312C18.0582 12.9618 18.1275 12.7725 18.1519 12.5662C18.1763 12.36 18.0394 12.1125 18.0394 12.1125Z" fill="#D0FE8B"/>
<path d="M18.3225 14.8631C18.3525 14.8219 18.1781 14.7413 18.0488 14.5219C17.9194 14.3025 17.865 14.175 17.8013 14.1619C17.7375 14.1488 17.37 14.3194 17.37 14.3513C17.37 14.3831 17.5538 14.6156 17.5538 14.6156C17.5538 14.6156 17.3025 14.6831 17.1806 14.4994C17.0588 14.3156 17.0775 14.1525 17.0006 14.0231C16.9238 13.8938 16.8038 13.7081 16.7306 13.7138C16.6594 13.7175 16.5731 13.7775 16.6088 13.9031C16.6444 14.0288 16.6725 14.07 16.6725 14.07C16.7363 14.2088 16.5863 14.3888 16.65 14.4919C16.7138 14.595 17.235 14.9419 17.3288 14.9813C17.4225 15.0206 18.2681 14.9381 18.3225 14.8631ZM18.2606 14.1619C18.3994 14.1769 18.4313 13.8431 18.405 13.7119C18.3788 13.5806 18.27 13.2394 18.1575 13.2394C18.045 13.2394 17.9456 13.3781 17.9681 13.4681C17.9906 13.5581 18.0675 13.6931 18.0713 13.7381C18.075 13.785 18.1331 14.1488 18.2606 14.1619ZM18.6825 14.3138C18.6563 14.3306 18.6375 14.5256 18.6638 14.5481C18.69 14.5706 18.8794 14.5931 18.9694 14.7094C19.0594 14.8256 19.0631 14.9513 19.1213 14.97C19.1794 14.9888 19.6613 14.88 19.6613 14.6644C19.6613 14.5481 18.7631 14.2613 18.6825 14.3138ZM20.6813 17.0269C20.73 16.9425 20.6963 16.785 20.745 16.6913C20.7938 16.5994 20.925 16.5563 20.9831 16.6238C21.0413 16.6913 21.0469 16.92 21.0075 16.9931C20.9813 17.0419 20.9775 17.2106 20.8425 17.3288C20.7075 17.4469 20.6288 17.4356 20.5894 17.445C20.55 17.4544 20.3663 17.61 20.2894 17.5088C20.2125 17.4075 20.3231 17.2425 20.43 17.1638C20.535 17.085 20.6475 17.085 20.6813 17.0269ZM19.095 15.3863C19.0763 15.3675 19.0519 15.0413 18.8775 15.0319C18.7031 15.0225 18.5625 15.1669 18.5625 15.1669C18.5625 15.1669 18.345 15.1519 18.2906 15.1969C18.2381 15.24 18.0375 15.4538 17.9513 15.4931C17.8631 15.5325 17.7281 15.57 17.6363 15.6094C17.5444 15.6488 17.49 15.7894 17.5013 15.9394C17.5106 16.0894 17.5444 16.425 17.5594 16.5019C17.5744 16.5788 17.6756 16.7831 17.9231 16.6856C18.1706 16.5881 18.2588 16.4681 18.3019 16.4625C18.345 16.4569 18.7388 16.4569 18.7631 16.4438C18.7875 16.4288 19.0106 16.8319 19.2056 16.875C19.4006 16.9181 19.6425 16.8994 19.6856 16.8656C19.7288 16.8319 19.9856 16.4775 20.01 16.3519C20.0344 16.2263 20.0288 15.9638 19.98 15.8625C19.9313 15.7613 19.62 15.42 19.62 15.42C19.62 15.42 19.5713 15.0506 19.3425 15.0469C19.1625 15.0431 19.29 15.3131 19.245 15.3581C19.2019 15.4013 19.095 15.3863 19.095 15.3863Z" fill="#D0FE8B"/>
</svg>
